PathFileType	4	(X/Y/Z)	C:/Users/opensim2020/Desktop/walking_exp_matlab/subject02_walking14_straight_02.trc	
DataRate	CameraRate	NumFrames	NumMarkers	Units	OrigDataRate	OrigDataStartFrame	OrigNumFrames	
100.00	100.00	6	41	mm	100.00	870	121	
Frame#	Time	LFHD			RFHD			LBHD			RBHD			C7			T10			CLAV			STRN			RBAK			LSHO			LUPA			LELB			LFRM			LWRA			LWRB			LFIN			RSHO			RUPA			RELB			RFRM			RWRA			RWRB			RFIN			LASI			RASI			LPSI			RPSI			LTHI			LKNE			LTIB			LANK			LHEE			LTOE			RTHI			RKNE			RTIB			RANK			RHEE			RTOE			*39			*40			
		X1	Y1	Z1	X2	Y2	Z2	X3	Y3	Z3	X4	Y4	Z4	X5	Y5	Z5	X6	Y6	Z6	X7	Y7	Z7	X8	Y8	Z8	X9	Y9	Z9	X10	Y10	Z10	X11	Y11	Z11	X12	Y12	Z12	X13	Y13	Z13	X14	Y14	Z14	X15	Y15	Z15	X16	Y16	Z16	X17	Y17	Z17	X18	Y18	Z18	X19	Y19	Z19	X20	Y20	Z20	X21	Y21	Z21	X22	Y22	Z22	X23	Y23	Z23	X24	Y24	Z24	X25	Y25	Z25	X26	Y26	Z26	X27	Y27	Z27	X28	Y28	Z28	X29	Y29	Z29	X30	Y30	Z30	X31	Y31	Z31	X32	Y32	Z32	X33	Y33	Z33	X34	Y34	Z34	X35	Y35	Z35	X36	Y36	Z36	X37	Y37	Z37	X38	Y38	Z38	X39	Y39	Z39	X40	Y40	Z40	X41	Y41	Z41	

61	0.600	-1020.00171	-161.04637	1701.09216	-1163.00342	-154.72676	1686.13123	-1008.30731	-25.83264	1636.57813	-1150.63013	-6.84390	1621.02087	-1073.69360	42.56652	1495.29224	-1085.10693	83.79201	1213.89294	-1073.97839	-100.63608	1431.20752	-1086.71045	-161.60591	1264.74548	-1131.96741	100.44460	1314.11182	-900.56305	-41.20288	1471.98254	-805.29987	-76.48312	1284.89233	-775.80640	-129.78311	1153.11267	-796.77332	-245.39371	1085.39392	-865.24548	-363.05603	1074.53320	-828.86945	-351.76019	1033.47888	-839.41278	-415.71198	1026.91797	-1265.44873	-14.40404	1459.97131	-1342.76660	49.04762	1277.78247	-1357.92883	63.46997	1133.86780	-1381.86633	73.10320	1015.97345	-1364.79272	73.09888	877.76538	-1401.15247	114.28227	893.40936	-1398.86975	108.57809	818.87842	-958.32990	-143.79469	947.73102	-1207.33179	-165.09294	958.97015	-1048.51331	57.82836	998.42279	-1165.97156	55.49485	1007.27344	-907.78381	-14.83938	646.26178	-929.06219	52.36040	464.52283	-936.14392	211.08180	356.79559	-962.11053	347.26361	177.74321	-1016.77502	381.44717	184.50829	-965.66846	278.47290	35.17615	-1297.63989	-166.17537	667.10718	-1253.84741	-235.12439	470.31332	-1267.41113	-224.04829	282.35907	-1235.65332	-218.22635	90.06161	-1182.95447	-181.44017	38.02625	-1242.10254	-371.43405	38.66723	-1104.61719	-61.99461	1776.25427	-3360.36206	2845.32324	1034.20129 
62	0.610	-1021.98035	-174.93938	1702.24536	-1164.59900	-168.26715	1687.32410	-1010.26343	-39.38380	1638.16199	-1152.25793	-20.35876	1622.16003	-1075.10449	29.31115	1496.11243	-1086.96680	69.62139	1214.84119	-1075.56641	-114.30021	1432.56262	-1088.68750	-175.84853	1266.52502	-1133.61316	86.22107	1314.79138	-902.37048	-54.34142	1473.03552	-807.24799	-87.24019	1285.57324	-777.97803	-139.04446	1152.93811	-798.46783	-253.81154	1084.06201	-865.76917	-372.31073	1072.25378	-829.81781	-359.70770	1030.80115	-839.60187	-424.26971	1024.10962	-1266.79163	-27.55356	1461.82068	-1344.27014	33.96760	1278.95764	-1359.94678	47.63191	1135.37964	-1384.23743	56.59114	1017.72522	-1368.33191	55.95708	879.49860	-1404.29175	97.64864	895.08459	-1402.38721	92.15570	820.40192	-963.30444	-159.42084	948.69495	-1211.07361	-179.87688	961.48859	-1050.08545	42.60880	999.23932	-1168.03674	40.60287	1008.58917	-910.24500	-36.74944	644.10107	-929.99884	26.15143	462.66669	-938.62720	186.11113	359.37427	-963.96143	327.23019	186.30482	-1020.11932	360.54880	195.09950	-965.66241	269.21378	39.42723	-1298.78613	-180.71225	666.58563	-1254.69006	-244.98218	469.29404	-1267.35205	-228.15454	281.52771	-1235.15137	-219.05020	90.03809	-1182.71594	-181.63538	38.10758	-1241.11951	-372.36172	38.06437	-1106.23608	-75.37514	1777.27954			 
63	0.620	-1023.45978	-188.41316	1703.94910	-1166.02393	-181.72514	1688.88416	-1011.53223	-52.67942	1639.76929	-1153.64331	-33.85300	1623.65454	-1076.26111	16.26336	1497.07568	-1088.97705	55.45740	1216.06226	-1076.86877	-128.12138	1434.15063	-1090.30273	-189.94060	1268.41357	-1135.00769	72.03996	1315.80640	-903.94165	-67.23367	1474.26038	-809.37701	-98.52513	1285.82532	-780.09381	-148.02347	1152.87927	-799.92224	-262.04974	1082.41443	-866.14288	-380.85513	1069.23804	-830.56195	-367.99014	1028.15356	-839.59253	-431.72287	1020.38257	-1267.84937	-40.76177	1463.77197	-1346.39478	18.93069	1280.70667	-1362.18408	31.48897	1136.95764	-1386.84570	39.81468	1019.40466	-1371.77307	38.28040	881.09662	-1407.39209	80.20866	896.81207	-1405.91650	74.68925	822.04712	-967.72314	-174.46982	949.79034	-1214.65234	-193.99821	963.76880	-1051.85950	27.92006	1000.36639	-1170.01807	25.87527	1009.81744	-912.74561	-58.57147	641.77820	-930.82056	-0.49852	460.86502	-940.07147	159.92372	360.88681	-967.85498	307.20422	194.62633	-1024.77466	339.11795	204.09914	-963.07751	253.54192	45.99075	-1299.32166	-193.45938	666.64288	-1255.53894	-253.14565	468.33078	-1267.16089	-230.76352	280.94864	-1234.88733	-219.91826	90.08971	-1182.49463	-181.73477	38.14153	-1240.92297	-372.90591	37.69944	-1107.93689	-88.78066	1778.85291	-3356.92163	2846.02954	1034.46716 
64	0.630	-1024.36707	-201.40714	1706.12598	-1167.27283	-195.12634	1690.81433	-1012.92035	-66.44367	1641.64001	-1154.81152	-47.39016	1625.48718	-1077.64758	3.00949	1498.67139	-1091.18982	41.43508	1217.67712	-1078.00293	-141.64299	1435.98816	-1091.71057	-203.72849	1270.47180	-1135.81006	57.86485	1317.09021	-905.15192	-79.87897	1475.67981	-811.06659	-109.44314	1286.68726	-782.21167	-156.77875	1152.82617	-801.23053	-270.55249	1080.76758	-866.48260	-388.99295	1065.42725	-831.20508	-374.81476	1024.34045	-839.37268	-439.16956	1015.57245	-1269.02002	-54.23420	1465.96716	-1348.08813	3.89187	1282.53906	-1364.16956	15.14277	1138.85193	-1389.44336	22.52548	1021.34839	-1375.06946	19.89641	883.03345	-1410.23206	61.93773	898.44659	-1409.42700	56.20697	823.86493	-971.69696	-189.12085	951.01984	-1217.98071	-207.69295	965.89703	-1053.83337	13.72948	1002.00415	-1171.98560	11.65321	1011.29498	-915.08209	-81.10236	640.00757	-931.63757	-27.58088	459.49854	-940.43927	133.48573	362.35770	-973.89801	285.61398	202.40375	-1031.28931	315.58682	210.72424	-959.86591	233.22667	53.23840	-1300.78870	-204.79811	667.99872	-1256.44800	-259.56381	467.39926	-1266.92041	-232.99391	280.81787	-1234.48608	-220.09021	90.11150	-1182.25598	-181.70799	38.19656	-1240.84131	-373.08075	37.48144	-1108.99231	-101.93024	1780.56177			 
65	0.640	-1025.13416	-214.66339	1708.14270	-1168.31323	-208.55394	1692.94800	-1013.59412	-79.59818	1643.54102	-1155.96155	-60.76715	1627.62915	-1079.04858	-10.43900	1500.85181	-1093.24609	27.54073	1219.65613	-1078.87927	-154.96025	1438.17590	-1092.78589	-217.30878	1272.64709	-1137.62964	43.99223	1318.89001	-906.17773	-92.29120	1477.31006	-812.79639	-119.84337	1287.23645	-784.28198	-165.19685	1152.89087	-802.20496	-278.27502	1078.69849	-866.70642	-396.41455	1060.88049	-831.48987	-381.13052	1020.13367	-839.26343	-444.72565	1010.08746	-1270.10730	-67.83457	1468.53394	-1349.96741	-11.31394	1284.79236	-1366.23853	-1.39400	1140.59729	-1391.92029	4.91548	1023.43469	-1378.12976	0.87947	885.13928	-1413.10193	43.15231	900.30481	-1412.82922	36.66278	825.85614	-974.86407	-203.31314	952.38855	-1220.96594	-221.17303	967.86768	-1055.90271	-0.05190	1003.98273	-1173.99182	-1.93819	1013.21539	-917.13196	-103.61703	639.93384	-932.68048	-54.71597	458.87476	-942.11609	107.00567	364.36655	-980.05066	261.33786	209.07246	-1039.21277	290.35373	215.14502	-957.93842	210.09346	60.85840	-1302.22620	-216.02927	669.96075	-1257.31824	-265.13681	466.91830	-1267.02356	-235.29077	280.93909	-1234.19409	-220.36514	90.37346	-1182.12708	-181.58939	38.28447	-1240.64563	-373.23227	37.31762	-1110.34241	-115.33907	1782.85352			 
66	0.650	-1026.44348	-228.17065	1710.54504	-1169.06641	-222.02545	1695.20557	-1015.37592	-92.93650	1646.37781	-1157.29260	-74.12777	1629.90686	-1080.49585	-24.17872	1503.37659	-1095.12219	13.82850	1221.88062	-1079.62061	-168.16446	1440.54431	-1093.71033	-230.69264	1274.92773	-1139.85718	30.33871	1321.45874	-906.92053	-104.74427	1479.13171	-814.20947	-129.81482	1288.25867	-786.37830	-173.25797	1152.97986	-803.50537	-283.89731	1076.31958	-866.72540	-403.48462	1055.78296	-831.67517	-386.24503	1015.28046	-838.83582	-449.91556	1003.58649	-1271.13928	-82.03397	1471.11951	-1351.21277	-26.66925	1286.98340	-1369.01172	-17.80216	1143.29468	-1394.54602	-13.02830	1025.71790	-1380.95447	-18.53609	887.25806	-1416.04187	23.82800	902.37329	-1416.19226	16.05552	828.04388	-977.62775	-217.39920	953.84863	-1223.46887	-234.47496	969.64215	-1058.05896	-13.34012	1006.39777	-1175.94165	-15.20871	1015.57867	-918.91614	-124.43437	641.59296	-934.37524	-81.66203	459.10754	-946.20459	80.34368	367.13089	-986.25171	235.47527	214.04868	-1046.66357	263.79315	217.84975	-956.12482	184.51701	67.49002	-1302.86304	-226.58910	670.78906	-1258.29785	-270.55664	467.03540	-1267.87427	-237.87035	281.20636	-1234.03589	-220.76781	90.54613	-1181.94604	-181.62915	38.38560	-1240.64355	-373.26968	37.23478	-1111.12415	-128.63298	1785.07544			 
